<?xml version="1.0" standalone="no"?><!DOCTYPE svg PUBLIC "-//W3C//DTD SVG 1.1//EN" "http://www.w3.org/Graphics/SVG/1.1/DTD/svg11.dtd"><svg class="icon" height="512" viewBox="0 0 1024 1024" version="1.1" xmlns="http://www.w3.org/2000/svg"><path d="M681.1 245C659.5 125.5 551.8 34.6 431.8 35c-11 1-22 1.7-32.9 3.1-65.3 8.3-118.6 39.5-160.7 89-54 63.4-68.7 137.9-56.2 218.6 14 90 57.2 165.7 116.3 233.3 34.6 39.7 73.9 74.3 116.3 105.4 12.8 9.4 20.4 10.1 33 1 41.5-30 78.5-64.8 112.3-103.2 42.8-48.6 77.9-101.9 100.8-162.8 21.2-56.4 31.2-114.7 20.4-174.4zM597 450.7c-30.2 57.5-70.9 106.9-118.7 150.4-12.5 11.4-25.6 22.3-38.4 33.5-4.1 3.6-7.7 6-13.4 1.6-81.1-63.2-149-136.7-184.1-235.7-12.4-34.9-19.3-71-17.9-107.5-1.9-50.3 12.3-94.8 42.8-133.7C302 115.2 347.6 90.1 403.5 83c54.7-7 105 4.2 150 35.9 46.6 32.9 74.8 78.1 82.9 134.6 10 70.2-6.9 135.4-39.4 197.2zM320 828c-20.1 14.8-39 31.2-57.9 47.5-3.4 3-4.5 8.8-5.4 10.7 0.1 12.4 3.3 19.9 12.2 23.7 9.1 3.9 17.6 3.1 25.6-3.7 15.9-13.6 32-27.1 48.7-39.7 12.2-9.2 16.1-20.6 9.1-32.3-6.6-11.1-20.3-15-32.3-6.2zM420.7 797.3c-8.5 1.2-14.6 2.3-20.8 2.8-15.1 1.3-23.8 10-23.3 23.8 0.4 13.9 9.3 21.5 25.1 21.4 19.9-0.1 39.6-0.4 59 5.9 12.8 4.2 26.1-4.1 29.6-16.5 3.1-10.9-4-24.1-16.8-27.3-18-4.4-36.5-7.1-52.8-10.1zM298.3 579.8c34.6 39.7 73.9 74.3 116.3 105.4 12.8 9.4 20.4 10.1 33 1 41.5-30 78.5-64.8 112.3-103.2 42.8-48.6 77.9-101.9 100.8-162.8 21.2-56.4 31.3-114.7 20.5-174.4-21.6-119.5-129.3-210.4-249.4-210-11 1-22 1.7-32.9 3.1-65.3 8.3-118.6 39.5-160.7 89-53.9 63.4-68.7 137.9-56.1 218.6 13.8 90 57.1 165.7 116.2 233.3z m-30.9-420.4c34.7-44.1 80.3-69.2 136.2-76.3 54.7-7 105 4.2 150 35.9 46.6 32.9 74.8 78.1 82.9 134.6 10.1 70.1-6.9 135.3-39.4 197.1-30.2 57.5-70.9 106.9-118.7 150.4-12.5 11.4-25.6 22.3-38.4 33.5-4.1 3.6-7.7 6-13.4 1.6-81.1-63.2-149-136.7-184.1-235.7-12.4-34.9-19.3-71-17.9-107.5-1.9-50.2 12.2-94.7 42.8-133.6zM512.3 846.6c-1.5 11.6 6.5 22.9 19.8 25.2 16.6 2.9 33.4 4.1 50.1 6.1 0.1-0.5 0.1-1 0.2-1.5 7.4 0 14.8 0.3 22.1-0.1 12.5-0.7 22.2-11 22.2-23 0-12.5-7.8-21.3-20-22.1-22.7-1.5-45.4-3-68-4.3-14-0.8-24.8 7.5-26.4 19.7zM968.1 968.6c-9.5-35.2-18.5-70.5-27.7-105.7-25.1-96.2-50.2-192.3-75.3-288.5-6.5-24.9-12.3-29.4-38.5-29.4-63.6 0-127.2-0.1-190.8 0.1-5.4 0-11.1 0.7-16.3 2.4-9.7 3.3-15.4 11.3-15.4 21 0 10.1 5.8 18.3 16.1 21.5 4.8 1.5 10.1 2.2 15.2 2.2 42.2 0.2 84.3 0.1 126.5 0.1h11.5c2.2 23.4 10.2 34.8 23.6 35.2 12.9 0.4 19.5-8.7 26.1-33.2 31.1 119.2 62.2 238.3 93.5 358.2H259.7c-1-15.1-4.5-23.5-14.1-25.8-7.1-1.7-16.3-0.9-22.6 2.5-5.8 3.1-8.8 11.4-13.5 17-2.4 2.8-5.9 6.7-9 6.7-24.7 0.5-49.4 0.3-75.7 0.3 0.7-3.5 0.9-5.2 1.4-7 29.4-113.3 59-226.5 88-339.9 2.7-10.6 6.6-15.1 18.3-14.5 14.9 0.8 27.4-11.3 27.1-23.5-0.2-12.3-12.6-22.8-27.6-23.3-8.1-0.2-16.3-0.1-24.4 0-17.7 0.1-25.9 6.8-30.5 24.3-13 49.9-26.1 99.7-39 149.6-21.9 84.1-43.9 168.1-65 252.4-1.6 6.4 1.4 17.2 6.3 21.1 6.3 5.2 16.6 8 25.1 8 277.4 0.4 554.8 0.3 832.1 0.3 3 0 5.9 0.2 8.9-0.1 13.2-1.5 27.9-12.4 22.6-32zM759.1 760c9.8 6 22.5 4.1 29.1-6.5 14.9-24.1 22-51 26.7-76.1 0-14.2-8.5-24.3-19.5-25.9-11.5-1.7-21.8 6.7-25.7 19.4-6.1 19.9-12.5 39.8-19.7 59.4-4.4 12.2-1.8 23 9.1 29.7zM715.8 779c-17.7 12.5-36.1 24.1-53.5 37-6.2 4.6-10.1 12.2-15.1 18.4 2.7 18.3 18.7 28.8 33.7 22.2 7.1-3.1 14.5-6 20.7-10.5 15-10.6 29.9-21.5 43.8-33.5 9.9-8.6 9.4-21.4 1.3-30.8-7.9-9-20.8-9.9-30.9-2.8zM968.1 967.8c-9.5-35.2-18.5-70.5-27.7-105.7-25.1-96.2-50.2-192.3-75.3-288.5-6.5-24.9-12.3-29.4-38.5-29.4-63.6 0-127.2-0.1-190.8 0.1-5.4 0-11.1 0.7-16.3 2.4-9.7 3.3-15.4 11.3-15.4 21 0 10.1 5.8 18.3 16.1 21.5 4.8 1.5 10.1 2.2 15.2 2.2 42.2 0.2 84.3 0.1 126.5 0.1h11.5c2.2 23.4 10.2 34.8 23.6 35.2 12.9 0.4 19.5-8.7 26.1-33.2 31.1 119.2 62.2 238.3 93.5 358.2H259.7c-1-15.1-4.5-23.5-14.1-25.8-7.1-1.7-16.3-0.9-22.6 2.5-5.8 3.1-8.8 11.4-13.5 17-2.4 2.8-5.9 6.7-9 6.7-24.7 0.5-49.4 0.3-75.7 0.3 0.7-3.5 0.9-5.2 1.4-7 29.4-113.3 59-226.5 88-339.9 2.7-10.6 6.6-15.1 18.3-14.5 14.9 0.8 27.4-11.3 27.1-23.5-0.3-12.4-12.6-22.9-27.7-23.4-8.1-0.2-16.3-0.1-24.4 0-17.7 0.1-25.9 6.8-30.5 24.3-13 49.9-26.1 99.7-39 149.6-21.9 84.1-43.9 168.1-65 252.4-1.6 6.4 1.4 17.2 6.3 21.1 6.3 5.2 16.6 8 25.1 8 277.4 0.4 554.8 0.3 832.1 0.3 3 0 5.9 0.2 8.9-0.1 13.3-1.4 28-12.3 22.7-31.9zM399.9 799.6c-15 2.1-23.8 10.5-23.3 24.3 0.4 13.9 9.3 21.5 25.1 21.4 19.9-0.1 39.6-0.4 59 5.9 12.8 4.2 26.1-4.1 29.6-16.5 3.1-10.9-4-24.1-16.8-27.3-24.6-7.9-50-9.3-73.6-7.8zM512.3 846.6c-1.5 11.6 6.5 22.9 19.8 25.2 16.6 2.9 50.2 5.1 50.3 4.6 7.4 0 14.8 0.3 22.1-0.1 12.5-0.7 22.2-11 22.2-23 0-12.5-7.8-21.3-20-22.1-22.7-1.5-45.4-3-68-4.3-14-0.8-24.8 7.5-26.4 19.7zM759.1 759.2c9.8 6 22.5 4.1 29.1-6.5 14.9-24.1 22-51 26.7-76.1 0-14.2-8.5-24.3-19.5-25.9-11.5-1.7-21.8 6.7-25.7 19.4-6.1 19.9-12.5 39.8-19.7 59.4-4.4 12.2-1.8 23 9.1 29.7zM715.8 778.2c-17.7 12.5-36.1 24.1-53.5 37-6.2 4.6-12.3 8.1-14 18.6 2.7 18.3 17.6 28.5 32.6 22 7.1-3.1 14.5-6 20.7-10.5 15-10.6 29.9-21.5 43.8-33.5 9.9-8.6 9.4-21.4 1.3-30.8-7.9-9-20.8-9.9-30.9-2.8zM320 828c-20.1 14.8-39 31.2-57.9 47.5-3.4 3-4.5 8.8-5.4 10.7 0.1 12.4 3.3 19.9 12.2 23.7 9.1 3.9 17.6 3.1 25.6-3.7 15.9-13.6 32-27.1 48.7-39.7 12.2-9.2 16.1-20.6 9.1-32.3-6.6-11.1-20.3-15-32.3-6.2zM431.2 174.2c-65.5 0.3-119.9 53.8-120 120.4-0.2 70.6 63.5 122.3 120.4 119.7 55.6 2.8 120.4-47.8 120.6-119.6 0.2-65.5-54.3-120.7-121-120.5z m-0.7 195.1c-41.7-0.5-75.9-33.7-72.8-74.7-2-41.8 26.8-74.8 73.5-75.1 44.7-0.3 75.5 30.5 75 77.4-0.4 37.2-30.3 72.9-75.7 72.4z" /></svg>