<?xml version="1.0" encoding="utf-8"?>
<!-- Svg Vector Icons : http://www.onlinewebfonts.com/icon -->
<!DOCTYPE svg PUBLIC "-//W3C//DTD SVG 1.1//EN" "http://www.w3.org/Graphics/SVG/1.1/DTD/svg11.dtd">
<svg version="1.1" xmlns="http://www.w3.org/2000/svg" xmlns:xlink="http://www.w3.org/1999/xlink" x="0px" y="0px" viewBox="0 0 1000 1000" enable-background="new 0 0 1000 1000" xml:space="preserve">
<metadata> Svg Vector Icons : http://www.onlinewebfonts.com/icon </metadata>
<g><path d="M415.1,990L291,865.8l11.9-14.8c35.3-43.9,32.2-106.9-7.4-146.5c-38.4-38.4-104.1-41.6-146.5-7.5L134.2,709L10,584.8L584.8,10L709,134.2L696.9,149c-35.9,44-33,107.2,6.9,147.1c38.6,38.6,104.8,41.5,147.1,6.9l14.8-12.2L990,415.2L415.1,990z M347,861.9l68.2,68.2l515-514.9L862,347.1c-58.4,36.4-139.3,27.9-188.2-21c-50.7-50.8-58.5-128.7-21-188.2l-68-68L69.9,584.8l68.2,68.2c58.3-35.9,138.7-27.1,187.3,21.6C375.7,724.9,383.7,802.5,347,861.9z"/><path d="M372.8,532.3l-29.9-30l164.7-164.7l30,29.9L372.8,532.3z"/><path d="M497.6,657.1l-29.9-29.9l164.8-164.7l30,29.9L497.6,657.1z"/></g>
</svg>